<?xml version="1.0" standalone="no"?>
<!DOCTYPE svg PUBLIC "-//W3C//DTD SVG 20010904//EN"
 "http://www.w3.org/TR/2001/REC-SVG-20010904/DTD/svg10.dtd">
<svg version="1.0" xmlns="http://www.w3.org/2000/svg"
 width="300.000000pt" height="300.000000pt" viewBox="0 0 300.000000 300.000000"
 preserveAspectRatio="xMidYMid meet">

<g transform="translate(0.000000,300.000000) scale(0.100000,-0.100000)"
fill="#000000" stroke="none">
<path d="M1105 2971 c-189 -48 -365 -131 -521 -247 -131 -96 -103 -95 36 1
200 140 443 235 675 264 l70 8 -75 1 c-51 0 -111 -9 -185 -27z"/>
<path d="M1695 2985 c326 -46 607 -187 846 -425 299 -298 445 -670 426 -1084
-18 -373 -158 -688 -426 -957 -215 -214 -456 -344 -765 -411 -85 -19 -132 -22
-291 -22 -215 0 -312 16 -496 80 -525 183 -910 650 -978 1189 l-8 70 -2 -70
c0 -45 8 -104 24 -166 145 -569 589 -985 1177 -1100 145 -29 403 -31 545 -5
264 48 489 149 688 309 281 226 468 538 532 890 23 125 23 389 0 514 -77 421
-328 782 -700 1008 -184 112 -444 196 -595 194 l-67 -1 90 -13z"/>
<path d="M1457 2964 c-13 -13 -7 -52 9 -58 22 -9 46 13 42 38 -3 21 -37 34
-51 20z"/>
<path d="M1585 2956 c-20 -15 -15 -43 10 -52 18 -7 45 12 45 32 0 22 -35 35
-55 20z"/>
<path d="M1324 2945 c-9 -23 3 -45 24 -45 25 0 44 23 36 44 -8 20 -53 21 -60
1z"/>
<path d="M1206 2934 c-12 -12 -13 -20 -6 -35 11 -20 19 -23 44 -13 19 7 21 35
4 52 -16 16 -23 15 -42 -4z"/>
<path d="M1713 2943 c-27 -10 -7 -63 24 -63 21 0 36 39 22 56 -12 14 -24 16
-46 7z"/>
<path d="M1080 2906 c-27 -33 18 -72 48 -42 13 13 14 20 6 34 -15 23 -38 26
-54 8z"/>
<path d="M1827 2906 c-11 -28 4 -47 32 -44 20 2 26 8 26 28 0 20 -6 26 -26 28
-17 2 -29 -3 -32 -12z"/>
<path d="M1345 2880 c-219 -24 -441 -101 -612 -214 -66 -44 -71 -48 -60 -69
26 -49 26 -49 85 -8 135 91 323 167 486 196 114 19 325 19 441 -1 261 -45 491
-168 689 -369 61 -60 119 -115 130 -120 12 -6 22 -23 24 -39 2 -16 17 -53 34
-83 30 -53 30 -53 80 -53 27 0 58 -5 69 -10 24 -13 24 -9 -2 43 -80 157 -242
345 -399 464 -100 75 -290 171 -410 207 -171 51 -393 73 -555 56z"/>
<path d="M1955 2874 c-18 -19 -16 -33 7 -48 12 -7 21 -6 32 3 22 18 20 38 -3
51 -15 7 -24 6 -36 -6z"/>
<path d="M960 2865 c-10 -12 -11 -21 -4 -33 15 -22 27 -24 49 -8 16 12 18 18
9 33 -15 24 -38 27 -54 8z"/>
<path d="M2070 2825 c-15 -18 -7 -43 16 -52 24 -9 46 24 33 48 -12 23 -32 24
-49 4z"/>
<path d="M842 2818 c-16 -16 -15 -23 4 -42 21 -22 56 -3 52 27 -3 25 -37 34
-56 15z"/>
<path d="M2180 2766 c-27 -33 18 -72 48 -42 13 13 14 20 6 34 -15 23 -38 26
-54 8z"/>
<path d="M727 2764 c-13 -14 -7 -43 12 -53 27 -15 60 11 45 36 -12 19 -45 29
-57 17z"/>
<path d="M1246 2744 c-101 -18 -235 -63 -328 -110 -85 -42 -198 -115 -198
-126 0 -5 23 -54 51 -109 45 -91 52 -100 72 -94 12 3 64 9 114 12 96 6 132 1
333 -44 152 -34 252 -36 301 -6 113 70 51 156 -110 152 -43 -1 -84 2 -90 5 -6
4 -11 20 -11 36 0 31 55 86 115 114 18 9 35 25 38 36 5 20 45 28 60 13 4 -3
62 -5 129 -4 142 2 205 -11 317 -66 134 -65 265 -214 307 -348 l12 -40 -1 60
c-2 58 -1 60 30 76 l33 16 -98 94 c-185 180 -401 291 -646 334 -110 19 -322
18 -430 -1z m218 -120 c16 -16 9 -45 -14 -59 -15 -9 -50 14 -50 33 0 38 37 53
64 26z m-123 -10 c17 -21 0 -49 -31 -49 -31 0 -48 28 -31 49 8 9 21 16 31 16
10 0 23 -7 31 -16z m-133 -16 c17 -17 15 -43 -4 -59 -31 -26 -70 25 -44 56 15
18 32 19 48 3z m-120 -40 c19 -19 14 -46 -9 -59 -18 -9 -25 -8 -40 8 -17 17
-18 20 -3 41 17 25 34 28 52 10z m-108 -67 c12 -23 -12 -54 -38 -49 -21 4 -36
32 -29 52 9 22 54 20 67 -3z m-110 -60 c12 -23 5 -47 -16 -55 -21 -8 -42 3
-49 25 -14 42 44 68 65 30z"/>
<path d="M2284 2695 c-10 -25 4 -45 30 -45 27 0 42 26 25 46 -15 19 -48 18
-55 -1z"/>
<path d="M627 2693 c-3 -4 4 -19 14 -32 22 -27 44 -18 37 15 -3 19 -42 32 -51
17z"/>
<path d="M495 2620 c-65 -28 -91 -44 -93 -58 -2 -11 33 -93 78 -182 45 -89 79
-164 77 -166 -2 -3 -66 50 -142 116 -76 66 -142 120 -146 120 -15 0 -159 -142
-159 -156 0 -7 78 -81 174 -164 l174 -150 -5 -38 c-5 -35 17 -187 32 -224 6
-16 0 -18 -53 -18 -34 0 -64 -5 -67 -11 -4 -5 14 -52 39 -102 l46 -92 0 -122
c0 -74 6 -155 16 -203 16 -77 13 -111 -6 -80 -12 19 -40 176 -40 223 0 21 -5
47 -11 58 -8 16 -7 25 5 38 22 24 20 58 -3 66 -24 7 -34 32 -22 53 6 11 0 31
-20 67 -51 90 -35 135 45 135 41 0 52 26 14 32 -28 4 -39 55 -14 64 12 5 16
22 16 74 0 67 -1 68 -42 106 l-42 38 -23 -53 c-59 -134 -100 -384 -88 -531 16
-186 60 -343 139 -497 25 -49 46 -102 46 -119 l0 -29 -20 25 c-34 43 -107 191
-138 282 -98 278 -91 594 19 872 l32 80 -29 23 c-16 12 -32 23 -35 23 -11 0
-79 -189 -99 -274 -102 -435 21 -895 324 -1215 254 -267 553 -405 941 -436
224 -18 549 58 747 174 78 45 131 55 151 27 7 -10 22 -17 33 -14 24 4 32 46
10 54 -31 12 -4 52 108 165 200 203 308 405 368 682 17 80 21 137 22 262 0
172 -4 197 -34 170 -13 -11 -28 -14 -57 -9 l-39 6 8 -74 c12 -100 0 -260 -27
-382 -26 -117 -82 -269 -96 -261 -5 4 0 24 11 45 12 23 20 57 19 82 -1 40 7
71 30 108 13 22 30 292 24 380 -6 87 -21 139 -22 77 -1 -24 -16 -68 -43 -119
-37 -72 -41 -89 -40 -145 0 -45 -3 -63 -11 -60 -8 3 -12 29 -11 78 1 67 5 81
43 152 45 81 47 103 10 109 -12 2 -24 9 -27 16 -3 9 3 11 21 7 19 -5 28 -2 36
14 9 16 16 19 34 12 12 -5 46 -12 76 -16 l54 -7 -7 76 c-5 50 -3 76 4 76 35 0
-36 161 -85 191 -35 22 -134 26 -153 7 -9 -9 -17 -6 -37 12 -22 21 -25 32 -25
96 0 86 -9 96 -77 92 l-48 -3 0 -115 c0 -107 -17 -214 -35 -225 -4 -3 -7 35
-7 83 0 162 -50 286 -159 394 -150 148 -343 212 -541 179 -117 -20 -254 -97
-240 -136 6 -15 15 -17 66 -11 104 12 191 -25 207 -88 7 -31 -30 -86 -80 -118
-45 -28 -188 -20 -371 22 -126 28 -151 31 -255 27 -63 -3 -126 -8 -140 -12
-24 -6 -29 1 -120 187 -55 109 -102 194 -110 195 -8 1 -55 -16 -105 -37z m119
-117 c9 -18 14 -33 12 -33 -6 0 -36 55 -36 66 0 11 5 3 24 -33z m1071 25 c-69
-17 -70 -18 -24 -41 64 -32 109 -103 109 -172 0 -29 -6 -68 -14 -87 -20 -46
-85 -104 -133 -117 -60 -17 -62 -12 -8 16 91 46 125 92 125 166 0 104 -70 181
-184 203 -29 5 -35 9 -23 15 19 11 111 27 157 27 l35 0 -40 -10z m-1041 -84
c3 -8 2 -12 -4 -9 -6 3 -10 10 -10 16 0 14 7 11 14 -7z m20 -40 c3 -8 2 -12
-4 -9 -6 3 -10 10 -10 16 0 14 7 11 14 -7z m20 -40 c3 -8 2 -12 -4 -9 -6 3
-10 10 -10 16 0 14 7 11 14 -7z m-315 -76 c14 -10 22 -20 20 -23 -3 -3 -32 20
-65 51 -32 31 -41 41 -19 22 22 -18 51 -41 64 -50z m184 -162 c48 -43 87 -83
87 -88 0 -8 -34 21 -164 144 -34 32 -64 58 -68 58 -5 0 -8 5 -8 12 0 7 15 -2
33 -18 17 -17 71 -65 120 -108z m632 81 c211 -48 332 -58 400 -31 18 7 18 6 6
-9 -21 -26 -107 -47 -196 -47 -56 0 -116 9 -200 30 -164 41 -228 47 -300 25
-64 -18 -170 -68 -180 -85 -16 -26 -24 -6 -9 23 31 61 79 96 161 117 58 14
196 4 318 -23z m1283 -121 c16 -18 16 -18 -4 -12 -18 5 -24 1 -32 -24 -15 -42
-22 -38 -12 8 5 20 12 71 17 112 l8 75 3 -70 c2 -48 8 -75 20 -89z m225 -53
c4 -2 5 -8 2 -12 -2 -5 11 -25 30 -45 60 -64 42 -84 -40 -44 -36 18 -42 24
-28 29 15 6 13 9 -12 19 -67 27 -73 37 -34 57 21 11 59 9 82 -4z m-1399 -36
c17 -18 67 -93 110 -166 44 -74 99 -158 123 -187 l44 -54 -138 0 -138 0 -22
33 c-32 47 -49 92 -67 179 -20 97 -20 161 -1 198 20 40 50 38 89 -3z m-695
-13 c22 -19 70 -87 107 -151 37 -63 82 -135 100 -159 19 -24 34 -46 34 -49 0
-3 -12 -3 -27 -1 -16 2 -48 7 -73 11 -161 22 -181 28 -196 56 -20 39 -44 160
-44 220 0 55 22 109 45 109 8 0 33 -16 54 -36z m353 -1 c20 -21 67 -89 104
-152 37 -63 89 -143 115 -177 l48 -63 -62 4 c-34 3 -101 7 -149 11 l-86 6 -25
67 c-35 93 -50 179 -45 250 7 98 40 116 100 54z m1538 22 c-7 -9 -15 -13 -17
-11 -7 7 7 26 19 26 6 0 6 -6 -2 -15z m-360 -32 c48 -28 63 -77 41 -130 -16
-40 -31 -43 -31 -5 0 22 -5 27 -25 28 -35 2 -74 30 -86 61 -8 21 -12 23 -24
13 -29 -24 -30 2 -2 26 34 29 86 32 127 7z m368 -146 c39 -40 40 -49 5 -36
-39 14 -76 92 -61 128 11 25 11 25 18 -17 4 -28 17 -53 38 -75z m-544 87 c23
-23 20 -50 -11 -84 -38 -42 -101 -52 -132 -21 -29 29 -26 48 13 87 27 27 42
34 74 34 24 0 47 -7 56 -16z m404 -44 c52 -32 71 -100 27 -100 -14 0 -25 4
-25 10 0 18 -44 50 -71 50 -39 0 -70 -30 -79 -76 l-7 -39 -12 29 c-16 39 -6
78 27 108 46 43 89 49 140 18z m-278 -95 c0 -26 -23 -49 -64 -65 -67 -25 -65
48 3 82 40 20 61 14 61 -17z m429 -51 c17 -14 31 -30 31 -35 0 -19 -36 -8 -63
20 -15 16 -37 32 -50 34 -14 3 -8 5 15 6 26 1 45 -6 67 -25z m-595 -10 c9 -3
16 -13 16 -20 0 -11 -4 -12 -19 -4 -34 17 -61 12 -61 -11 0 -21 -62 -89 -81
-89 -16 0 -9 64 9 87 27 35 94 53 136 37z m381 -24 c4 -6 -9 -10 -32 -10 -21
0 -49 -7 -61 -16 -12 -8 -22 -11 -22 -6 0 13 60 41 87 42 12 0 25 -4 28 -10z
m-1840 -46 c63 -19 206 -51 308 -69 158 -28 337 -37 732 -37 524 1 651 13 947
85 76 19 134 29 131 23 -48 -80 -76 -114 -95 -119 -13 -3 -77 -19 -143 -36
-268 -69 -506 -100 -795 -102 -156 -1 -183 -3 -135 -10 100 -15 625 -13 761 2
l122 14 11 -48 c6 -27 11 -71 11 -99 0 -49 0 -50 -27 -44 -39 9 -91 -9 -124
-40 l-28 -27 -35 31 c-58 51 -152 50 -195 -1 -18 -22 -30 -21 -58 5 -16 15
-38 22 -75 24 -29 1 -70 5 -91 9 -45 9 -84 -6 -123 -46 l-28 -29 -33 32 c-32
31 -39 33 -111 35 -42 0 -83 2 -89 2 -7 1 -13 10 -13 22 0 26 -18 61 -42 77
-10 7 -18 19 -18 27 0 21 -57 64 -97 71 -32 6 -39 4 -60 -22 -13 -16 -37 -51
-53 -79 l-30 -50 0 37 c0 29 -7 44 -32 68 -47 43 -124 63 -146 38 -6 -7 -31
-69 -56 -138 -61 -166 -57 -160 -99 -123 -38 33 -101 51 -122 33 -15 -12 -18
-3 -35 114 -7 43 -9 93 -6 110 11 60 -10 151 -48 210 -33 52 -40 66 -33 66 1
0 25 -7 52 -16z m1958 -161 c-7 -2 -19 -2 -25 0 -7 3 -2 5 12 5 14 0 19 -2 13
-5z m-1525 -136 c19 -20 20 -29 12 -97 -5 -41 -9 -123 -10 -182 0 -65 -4 -108
-10 -108 -5 0 -10 -9 -10 -20 0 -11 5 -20 11 -20 5 0 8 4 4 9 -3 5 0 15 7 23
7 7 26 51 41 98 34 103 94 230 136 288 27 37 34 41 51 32 11 -6 20 -15 20 -20
0 -5 -24 -47 -53 -92 -69 -107 -134 -252 -156 -347 -19 -81 -36 -96 -74 -69
-24 18 -40 133 -35 265 1 56 0 99 -3 95 -3 -4 -14 -29 -24 -56 -52 -142 -148
-275 -222 -308 -50 -22 -74 -18 -103 19 -35 45 -18 144 39 236 34 52 47 57 79
27 l22 -20 -45 -65 c-61 -90 -73 -165 -26 -165 56 0 132 114 216 325 78 197
71 184 94 178 10 -3 28 -15 39 -26z m1599 -19 c-2 -13 -4 -5 -4 17 -1 22 1 32
4 23 2 -10 2 -28 0 -40z m119 -3 c8 -19 -11 -42 -48 -61 -44 -23 -51 -7 -16
36 35 42 55 50 64 25z m-1416 -41 c20 -24 1 -69 -29 -69 -31 0 -52 33 -40 63
10 26 50 30 69 6z m1272 -108 c-9 -16 -19 16 -13 42 l5 27 6 -30 c4 -16 4 -34
2 -39z m-420 -14 c24 -20 34 -72 17 -83 -23 -15 -29 -10 -29 21 0 63 -72 23
-110 -63 -35 -76 -20 -147 31 -147 26 0 89 33 111 57 10 11 24 41 32 67 19 61
60 120 101 146 42 26 91 26 107 0 7 -11 16 -20 20 -20 4 0 10 9 13 20 8 25 26
25 56 1 22 -17 22 -20 7 -42 -24 -37 -68 -166 -68 -200 0 -73 76 -2 105 98 28
97 62 163 83 163 24 0 55 -33 43 -46 -13 -14 -59 -134 -69 -181 -18 -78 19
-83 67 -9 34 50 50 30 18 -22 -47 -74 -106 -102 -141 -66 -9 8 -16 25 -16 36
0 18 -5 16 -40 -16 -56 -51 -108 -45 -113 12 -1 17 -6 15 -45 -15 -69 -52
-119 -41 -136 31 l-7 30 -22 -26 c-12 -14 -31 -30 -42 -36 -15 -8 -19 -19 -17
-49 4 -47 -22 -76 -64 -71 -35 4 -45 28 -12 28 29 0 48 17 48 42 0 14 -8 18
-34 18 -51 0 -85 16 -98 47 -7 16 -13 29 -14 31 0 1 -19 -16 -41 -38 -56 -56
-113 -52 -113 7 0 22 -2 22 -46 -12 -25 -19 -56 -35 -69 -35 -31 0 -66 30 -68
58 -2 27 -14 29 -22 2 -14 -45 -95 -76 -123 -48 -18 18 -14 85 8 158 33 109
21 151 -30 100 -41 -41 -90 -170 -90 -237 0 -25 -4 -33 -17 -33 -27 0 -41 12
-48 41 l-6 26 -34 -34 c-67 -67 -123 -30 -112 75 6 53 40 162 66 211 14 24 43
27 64 6 13 -13 11 -24 -21 -97 -40 -94 -54 -178 -29 -178 23 0 76 69 88 115 5
22 21 70 36 108 21 55 30 67 48 67 13 0 28 -7 35 -15 11 -13 15 -13 41 0 43
23 76 19 95 -10 20 -31 15 -71 -22 -165 -15 -38 -24 -76 -20 -85 17 -44 74 18
100 108 17 60 58 119 101 147 40 26 91 26 107 0 7 -11 16 -20 20 -20 4 0 10 9
13 20 8 25 37 26 59 2 15 -18 14 -23 -19 -95 -19 -42 -38 -96 -41 -120 -15
-104 66 -49 101 69 20 69 64 127 115 152 43 21 62 20 92 -6z m-23 -214 c-31
-26 -39 -22 -28 12 9 26 13 28 30 17 19 -12 19 -12 -2 -29z m-1229 -94 c0 -33
-2 -35 -17 -23 -10 7 -19 14 -21 15 -6 3 23 44 30 44 5 0 8 -16 8 -36z m4 -60
c3 -8 2 -12 -4 -9 -6 3 -10 10 -10 16 0 14 7 11 14 -7z m-58 -41 c52 -33 56
-45 13 -33 -33 10 -69 37 -69 52 0 13 10 10 56 -19z m247 -19 c-36 -33 -48
-30 -15 4 15 15 30 26 34 24 5 -2 -4 -14 -19 -28z m343 21 c18 -18 115 -21
145 -4 16 8 25 7 37 -4 9 -8 24 -17 32 -20 13 -5 13 -6 0 -6 -9 -1 -21 4 -27
10 -8 8 -24 8 -60 0 -81 -18 -353 -18 -353 0 0 11 23 13 111 10 49 -2 68 1 78
13 16 20 19 20 37 1z m524 -5 c8 -5 11 -10 5 -10 -5 0 -17 5 -25 10 -8 5 -10
10 -5 10 6 0 17 -5 25 -10z m439 -9 c10 -7 -12 -23 -85 -59 -117 -59 -204 -88
-230 -77 -14 5 1 14 61 34 44 15 114 46 155 68 88 47 81 45 99 34z m156 -1
c10 -16 -97 -130 -122 -130 -13 0 -23 3 -23 6 0 12 115 133 127 133 6 1 15 -4
18 -9z m-745 -10 c13 -8 13 -10 -2 -10 -9 0 -20 5 -23 10 -8 13 5 13 25 0z
m-1097 -77 c48 -47 76 -82 72 -90 -3 -8 -9 -13 -14 -11 -19 7 -102 83 -141
129 -39 46 -40 49 -18 49 15 0 50 -26 101 -77z m474 71 c-3 -3 -12 -4 -19 -1
-8 3 -5 6 6 6 11 1 17 -2 13 -5z m-248 -51 c23 -28 21 -54 -6 -85 -14 -15 -13
-20 5 -43 20 -25 21 -25 27 -5 7 22 22 25 45 10 13 -8 13 -13 -3 -41 -16 -29
-16 -33 -2 -49 8 -9 15 -19 15 -22 0 -2 -43 -5 -96 -6 -89 -1 -98 1 -120 23
-31 31 -30 66 0 102 17 20 22 34 15 44 -44 70 68 139 120 72z m291 -78 l0
-105 51 0 c49 0 50 -1 47 -27 -3 -28 -3 -28 -83 -28 l-80 0 -3 133 -3 132 36
0 35 0 0 -105z m760 52 l0 -53 35 4 c54 6 65 -9 65 -95 l0 -74 -27 3 c-27 3
-28 6 -31 61 -3 49 -6 58 -20 55 -13 -2 -18 -17 -22 -58 -5 -51 -7 -55 -32
-58 l-28 -3 0 129 c0 71 3 132 7 135 3 4 17 7 30 7 21 0 23 -4 23 -53z m-907
-7 c65 -21 87 -40 47 -40 -29 0 -152 47 -161 62 -16 24 -9 29 19 14 15 -8 58
-24 95 -36z m720 23 c-7 -2 -21 -2 -30 0 -10 3 -4 5 12 5 17 0 24 -2 18 -5z
m-546 -100 c-3 -10 -5 -4 -5 12 0 17 2 24 5 18 2 -7 2 -21 0 -30z m74 14 c-10
-9 -11 -8 -5 6 3 10 9 15 12 12 3 -3 0 -11 -7 -18z m179 -56 c0 -89 1 -88 -79
-90 -33 -1 -51 5 -68 21 -30 28 -31 85 -2 122 18 23 27 26 85 26 l64 0 0 -79z
m90 69 c0 -7 6 -7 19 0 26 14 64 13 79 -2 7 -7 12 -42 12 -86 l0 -73 -27 3
c-27 3 -28 6 -31 61 -3 49 -6 58 -20 55 -13 -2 -18 -17 -22 -58 -5 -51 -7 -55
-32 -58 l-28 -3 0 85 c0 85 0 86 25 86 14 0 25 -5 25 -10z m295 -20 c0 -22 -4
-25 -39 -25 -46 0 -68 -24 -46 -50 11 -13 23 -15 52 -11 33 5 38 4 38 -14 0
-45 -95 -56 -135 -15 -33 32 -32 75 1 115 24 28 31 31 78 28 47 -3 51 -5 51
-28z m375 8 c31 -34 26 -64 -11 -72 -17 -3 -42 -6 -55 -6 -27 0 -33 -19 -6
-22 28 -2 36 -1 60 6 17 6 22 3 22 -11 0 -30 -21 -43 -66 -43 -60 0 -94 30
-94 81 0 55 34 89 89 89 28 0 46 -6 61 -22z m158 14 c7 -5 10 -16 6 -25 -4
-12 -14 -15 -35 -10 -39 7 -37 -8 4 -27 22 -10 33 -23 35 -41 5 -39 -22 -61
-72 -57 -37 3 -41 6 -44 33 -3 24 -1 28 9 18 15 -15 59 -17 59 -4 0 5 -10 13
-22 17 -54 16 -71 53 -41 86 17 19 77 25 101 10z m-408 -121 c0 -6 -4 -13 -10
-16 -5 -3 -10 1 -10 9 0 9 5 16 10 16 6 0 10 -4 10 -9z m-260 -36 c11 -13 8
-15 -15 -15 -23 0 -26 2 -15 15 7 8 14 15 15 15 1 0 8 -7 15 -15z m-120 -5 c0
-5 -4 -10 -10 -10 -5 0 -10 5 -10 10 0 6 5 10 10 10 6 0 10 -4 10 -10z m520
-10 c18 -11 20 -9 -65 -47 -340 -152 -730 -149 -1060 9 l-70 33 38 3 c26 2 62
-7 110 -27 134 -55 316 -91 464 -91 156 0 390 51 500 109 43 22 61 25 83 11z"/>
<path d="M1628 1103 c-53 -55 -90 -173 -65 -207 13 -18 15 -17 50 13 42 38 79
127 75 180 -4 46 -25 50 -60 14z"/>
<path d="M2228 1103 c-58 -63 -96 -185 -65 -211 40 -33 132 113 125 197 -4 46
-25 50 -60 14z"/>
<path d="M1881 914 c0 -11 3 -14 6 -6 3 7 2 16 -1 19 -3 4 -6 -2 -5 -13z"/>
<path d="M1500 910 c0 -5 5 -10 11 -10 5 0 7 5 4 10 -3 6 -8 10 -11 10 -2 0
-4 -4 -4 -10z"/>
<path d="M757 654 c-9 -10 12 -46 24 -39 14 9 11 45 -4 45 -8 0 -17 -3 -20 -6z"/>
<path d="M735 520 c-9 -28 2 -40 36 -40 35 0 37 9 6 38 -29 27 -34 27 -42 2z
m35 -21 c0 -6 -4 -7 -10 -4 -5 3 -10 11 -10 16 0 6 5 7 10 4 6 -3 10 -11 10
-16z"/>
<path d="M1302 548 c-26 -26 -6 -83 24 -71 18 7 19 83 1 83 -7 0 -18 -5 -25
-12z"/>
<path d="M2077 554 c-15 -15 -6 -24 24 -24 20 0 29 4 27 13 -5 14 -40 21 -51
11z"/>
<path d="M2395 2626 c-22 -16 -12 -56 14 -56 20 0 41 19 41 37 0 21 -35 34
-55 19z"/>
<path d="M2482 2538 c-16 -16 -15 -23 4 -42 21 -22 56 -3 52 27 -3 25 -37 34
-56 15z"/>
<path d="M335 2494 c-15 -19 -24 -38 -20 -42 6 -7 64 56 65 71 0 17 -20 5 -45
-29z"/>
<path d="M2570 2445 c-19 -23 -8 -50 20 -50 19 0 26 6 28 24 5 35 -26 53 -48
26z"/>
<path d="M350 2432 c0 -15 38 -44 49 -37 17 10 -6 45 -29 45 -11 0 -20 -4 -20
-8z"/>
<path d="M422 2393 c-9 -17 -6 -25 18 -48 34 -33 39 -18 11 34 -17 33 -19 34
-29 14z"/>
<path d="M2652 2351 c-8 -4 -12 -19 -10 -32 2 -18 9 -24 28 -24 19 0 26 6 28
24 3 20 -11 41 -28 41 -3 0 -11 -4 -18 -9z"/>
<path d="M2710 2231 c-7 -15 -6 -24 6 -36 19 -18 33 -16 48 7 7 12 6 21 -3 32
-18 22 -38 20 -51 -3z"/>
<path d="M119 2163 c-73 -163 -119 -334 -118 -438 l2 -70 8 65 c18 144 68 306
145 478 4 6 1 12 -4 12 -6 0 -21 -21 -33 -47z"/>
<path d="M2530 2131 c0 -5 5 -13 10 -16 6 -3 10 -2 10 4 0 5 -4 13 -10 16 -5
3 -10 2 -10 -4z"/>
<path d="M2770 2126 c-27 -33 18 -72 48 -42 13 13 14 20 6 34 -15 23 -38 26
-54 8z"/>
<path d="M150 2105 c-18 -21 -5 -45 24 -45 30 0 40 13 31 40 -7 24 -37 26 -55
5z"/>
<path d="M2816 2011 c-10 -16 23 -61 40 -54 24 9 14 57 -13 61 -11 2 -24 -1
-27 -7z"/>
<path d="M104 1986 c-10 -26 4 -48 28 -44 17 2 23 10 23 28 0 18 -6 26 -23 28
-13 2 -25 -3 -28 -12z"/>
<path d="M2851 1881 c-13 -24 9 -57 33 -48 23 9 31 34 16 52 -17 20 -37 19
-49 -4z"/>
<path d="M70 1865 c-18 -21 -5 -45 25 -45 14 0 28 7 31 15 7 17 -12 45 -31 45
-7 0 -18 -7 -25 -15z"/>
<path d="M2874 1755 c-9 -23 3 -45 24 -45 25 0 44 23 36 44 -8 20 -53 21 -60
1z"/>
<path d="M55 1746 c-22 -16 -15 -50 11 -54 25 -4 47 19 38 41 -8 22 -29 28
-49 13z"/>
<path d="M2890 1636 c-27 -33 18 -72 48 -42 13 13 14 20 6 34 -15 23 -38 26
-54 8z"/>
<path d="M33 1614 c-7 -18 6 -45 24 -51 6 -2 18 3 27 12 12 12 13 21 6 36 -13
23 -48 25 -57 3z"/>
<path d="M2892 1508 c-30 -30 9 -69 44 -43 15 11 17 17 8 32 -14 23 -36 27
-52 11z"/>
<path d="M40 1466 c-27 -33 18 -72 48 -42 13 13 14 20 6 34 -15 23 -38 26 -54
8z"/>
<path d="M2876 1374 c-9 -22 12 -46 38 -42 15 2 21 10 21 28 0 20 -6 26 -26
28 -18 2 -29 -3 -33 -14z"/>
<path d="M51 1337 c-18 -23 -2 -49 28 -45 20 2 26 8 26 28 0 29 -34 40 -54 17z"/>
<path d="M2862 1258 c-18 -18 -15 -36 7 -48 15 -7 23 -6 35 6 9 8 16 19 16 23
0 11 -23 31 -35 31 -6 0 -16 -5 -23 -12z"/>
<path d="M79 1214 c-15 -18 -2 -47 24 -52 22 -5 42 35 26 54 -15 18 -33 18
-50 -2z"/>
<path d="M2833 1143 c-21 -8 -15 -51 7 -58 27 -8 40 1 40 30 0 17 -21 40 -33
34 -1 0 -8 -3 -14 -6z"/>
<path d="M122 1101 c-8 -4 -12 -19 -10 -32 2 -18 9 -24 28 -24 19 0 26 6 28
24 3 20 -11 41 -28 41 -3 0 -11 -4 -18 -9z"/>
<path d="M2781 1017 c-25 -31 20 -71 48 -42 12 12 13 19 5 33 -15 22 -38 26
-53 9z"/>
<path d="M160 971 c-7 -15 -6 -23 6 -35 19 -19 26 -20 42 -4 17 17 15 45 -4
52 -25 10 -33 7 -44 -13z"/>
<path d="M2730 905 c-17 -21 -8 -50 17 -53 30 -4 49 31 27 52 -19 20 -28 20
-44 1z"/>
<path d="M220 866 c-27 -33 18 -72 48 -42 13 13 14 20 6 34 -15 23 -38 26 -54
8z"/>
<path d="M2665 794 c-18 -18 -16 -33 7 -47 21 -14 48 -2 48 22 0 30 -34 45
-55 25z"/>
<path d="M284 755 c-10 -25 4 -45 30 -45 30 0 40 13 31 40 -8 24 -53 28 -61 5z"/>
<path d="M2584 685 c-9 -23 3 -45 24 -45 25 0 44 23 36 44 -8 20 -53 21 -60 1z"/>
<path d="M364 655 c-10 -25 4 -45 30 -45 27 0 42 26 25 46 -15 19 -48 18 -55
-1z"/>
<path d="M2507 604 c-13 -13 -7 -52 8 -58 27 -10 46 5 43 33 -3 26 -35 41 -51
25z"/>
<path d="M457 573 c-13 -12 -7 -54 8 -59 19 -8 45 13 45 36 0 23 -37 39 -53
23z"/>
<path d="M2411 507 c-18 -23 -2 -49 28 -45 20 2 26 8 26 28 0 29 -34 40 -54
17z"/>
<path d="M544 475 c-9 -23 3 -45 24 -45 25 0 44 23 36 44 -8 20 -53 21 -60 1z"/>
<path d="M650 406 c-27 -33 18 -72 48 -42 13 13 14 20 6 34 -15 23 -38 26 -54
8z"/>
<path d="M2204 355 c-10 -25 4 -45 30 -45 13 0 26 7 30 15 9 25 -5 45 -30 45
-14 0 -27 -7 -30 -15z"/>
<path d="M754 336 c-10 -26 4 -46 31 -46 23 0 26 4 23 28 -3 31 -44 45 -54 18z"/>
<path d="M2094 295 c-9 -23 3 -45 24 -45 29 0 48 26 32 45 -7 8 -21 15 -32 15
-10 0 -21 -7 -24 -15z"/>
<path d="M874 285 c-15 -11 -17 -17 -8 -32 21 -34 63 -25 64 14 0 22 -35 34
-56 18z"/>
<path d="M1975 240 c-9 -28 6 -43 36 -38 18 2 24 9 24 28 0 34 -50 42 -60 10z"/>
<path d="M989 234 c-15 -18 -2 -47 24 -52 22 -5 42 35 26 54 -15 18 -33 18
-50 -2z"/>
<path d="M1857 206 c-11 -28 4 -47 32 -44 20 2 26 8 26 28 0 20 -6 26 -26 28
-17 2 -29 -3 -32 -12z"/>
<path d="M1104 195 c-10 -25 4 -45 30 -45 13 0 26 7 30 15 9 25 -5 45 -30 45
-14 0 -27 -7 -30 -15z"/>
<path d="M1241 181 c-7 -5 -11 -19 -9 -32 4 -33 52 -35 56 -2 4 25 -27 46 -47
34z"/>
<path d="M1734 175 c-9 -23 3 -45 24 -45 25 0 41 18 35 41 -6 23 -51 26 -59 4z"/>
<path d="M1615 164 c-18 -18 -16 -33 7 -47 21 -14 48 -2 48 22 0 30 -34 45
-55 25z"/>
<path d="M1354 155 c-10 -25 4 -45 30 -45 25 0 39 20 30 45 -4 8 -17 15 -30
15 -14 0 -27 -7 -30 -15z"/>
<path d="M1487 164 c-23 -23 7 -69 37 -58 25 10 17 58 -9 62 -12 2 -24 0 -28
-4z"/>
</g>
</svg>
